# xmcd
#
# Track frame offsets:
#	150
#	17834
#	30350
#	43519
#	57242
#	81897
#	100122
#	115572
#	129776
#	141975
#	157361
#	172825
#
# Disc length: 2526 seconds
#
# Revision: 0
# Processed by: cddbd v1.5.2PL0 Copyright (c) Steve Scherf et al.
# Submitted via: dBpowerAMP V4.0
#
DISCID=8f09dc0c
DTITLE=Barra da Saia - Roça'n Roll
DYEAR=2007
DGENRE=Country
TTITLE0=Não tem volta
TTITLE1=Gostoso e bom
TTITLE2=Pára tudo que eu cheguei
TTITLE3=Nova York
TTITLE4=Pout Porri - India - Mercedita - Galopeira
TTITLE5=Vaso quebrado
TTITLE6=Detalhe
TTITLE7=O campeão
TTITLE8=Beijinho Doce
TTITLE9=Feito Sopa na Colher
TTITLE10=Ciúme
TTITLE11=Roça'n Roll
EXTD=
EXTT0=
EXTT1=
EXTT2=
EXTT3=
EXTT4=
EXTT5=
EXTT6=
EXTT7=
EXTT8=
EXTT9=
EXTT10=
EXTT11=
PLAYORDER=
